<?xml version="1.0" encoding="utf-8"?>
<!-- Generator: Adobe Illustrator 15.0.0, SVG Export Plug-In . SVG Version: 6.00 Build 0)  -->
<!DOCTYPE svg PUBLIC "-//W3C//DTD SVG 1.1//EN" "http://www.w3.org/Graphics/SVG/1.1/DTD/svg11.dtd">
<svg version="1.1" id="Layer_2_copy" xmlns="http://www.w3.org/2000/svg" xmlns:xlink="http://www.w3.org/1999/xlink" x="0px"
	 y="0px" width="2125.984px" height="2834.65px" viewBox="0 0 2125.984 2834.65" enable-background="new 0 0 2125.984 2834.65"
	 xml:space="preserve">
<g>
	<rect x="0.465" fill="#494242" width="2125.519" height="2833.945"/>
	<polygon fill="#CDCCCC" points="193.718,270.547 425.036,270.547 425.036,1188.473 326.945,1188.473 326.945,1019.381 
		193.718,1019.381 	"/>
	<polygon fill="#CDCCCC" points="442.604,270.547 514.342,270.547 514.342,447.69 675.386,447.69 675.386,1188.473 
		442.604,1188.473 	"/>
	<rect x="586.08" y="37.04" fill="#CDCCCC" width="588.543" height="185.195"/>
	<rect x="827.646" y="239.95" fill="#CDCCCC" width="346.977" height="438.027"/>
	<rect x="1306.386" y="70.858" fill="#CDCCCC" width="351.37" height="694.081"/>
	<rect x="1700.213" y="70.858" fill="#CDCCCC" width="348.44" height="694.081"/>
	<rect x="1085.316" y="789.095" fill="#CDCCCC" width="963.337" height="695.691"/>
	<polygon fill="#CDCCCC" points="732.484,1660.319 2048.653,1660.319 2048.653,2008.165 1707.532,2008.165 1707.532,2240.062 
		732.484,2240.062 	"/>
	<polygon fill="#CDCCCC" points="72.203,2046.813 681.243,2046.813 681.243,2468.738 1540.632,2468.738 1540.632,2724.79 
		72.203,2724.79 	"/>
	<rect x="231.783" y="1628.111" fill="#CDCCCC" width="354.297" height="314.026"/>
	<rect x="231.783" y="1272.213" fill="#CDCCCC" width="354.297" height="312.417"/>
</g>
</svg>
